<svg xmlns="http://www.w3.org/2000/svg" xmlns:xlink="http://www.w3.org/1999/xlink" version="1.1" width="158" height="158">
<!-- Created with Pivot Animator (http://pivotanimator.net) -->
<rect x="0" y="0" width="158" height="158" style="fill:rgb(255,255,255)"/>
<g id="fig0" opacity="1" stroke-linecap="round" stroke-linejoin="round">
<line x1="79.254" y1="100.117" x2="80.127" y2="52.125" style="stroke-width:6;stroke:rgb(0,0,0)"/>
<circle cx="79.077" cy="27.352" r="24.795" style="stroke-width:6;fill:rgb(255,255,255);stroke:rgb(0,0,0)"/>
<line x1="80.127" y1="52.125" x2="66.516" y2="86.213" style="stroke-width:6;stroke:rgb(0,0,0)"/>
<line x1="66.516" y1="86.213" x2="70.2" y2="104.959" style="stroke-width:6;stroke:rgb(0,0,0)"/>
<line x1="80.127" y1="52.125" x2="88.47" y2="87.869" style="stroke-width:6;stroke:rgb(0,0,0)"/>
<line x1="88.47" y1="87.869" x2="104.111" y2="98.703" style="stroke-width:6;stroke:rgb(0,0,0)"/>
<line x1="79.254" y1="100.117" x2="78.621" y2="130.872" style="stroke-width:6;stroke:rgb(0,0,0)"/>
<line x1="78.621" y1="130.872" x2="60.873" y2="148.479" style="stroke-width:6;stroke:rgb(0,0,0)"/>
<line x1="79.254" y1="100.117" x2="84.081" y2="131.565" style="stroke-width:6.25;stroke:rgb(0,0,0)"/>
<line x1="84.081" y1="131.565" x2="80.816" y2="155.351" style="stroke-width:6;stroke:rgb(0,0,0)"/>
</g>
<g id="fig1" opacity="1" stroke-linecap="round" stroke-linejoin="round">
<circle cx="71.072" cy="23.243" r="6.47" style="stroke-width:1.2;fill:rgb(0,0,0);stroke:rgb(0,0,0)"/>
<line x1="77.472" y1="22.293" x2="82.072" y2="22.393" style="stroke-width:4.17;stroke:rgb(0,0,0)"/>
<circle cx="88.072" cy="23.393" r="6.083" style="stroke-width:2;fill:rgb(0,0,0);stroke:rgb(0,0,0)"/>
<line x1="64.672" y1="24.193" x2="57.672" y2="28.293" style="stroke-width:4.17;stroke:rgb(0,0,0)"/>
<line x1="94.072" y1="24.393" x2="103.672" y2="31.293" style="stroke-width:4.17;stroke:rgb(0,0,0)"/>
</g>
</svg>
