<?xml version="1.0" encoding="UTF-8"?><svg id="Layer_1" xmlns="http://www.w3.org/2000/svg" viewBox="0 0 112.87 251.1"><defs><style>.cls-1{fill:#231f20;stroke-width:0px;}</style></defs><path class="cls-1" d="M56.44,112.99C25.22,112.99-.18,87.59-.18,56.37S25.22-.24,56.44-.24s56.61,25.4,56.61,56.61-25.39,56.61-56.61,56.61ZM56.44,7.49C29.48,7.49,7.55,29.42,7.55,56.37s21.93,48.88,48.89,48.88,48.88-21.93,48.88-48.88S83.39,7.49,56.44,7.49Z"/><rect class="cls-1" x="52.38" y="109.14" width="7.7" height="103.95"/><rect class="cls-1" x="30.96" y="114.36" width="7.7" height="60.6" transform="translate(-92.1 66.98) rotate(-45)"/><rect class="cls-1" x="47.36" y="140.81" width="60.6" height="7.7" transform="translate(-79.55 97.28) rotate(-45)"/><rect class="cls-1" x="73.81" y="196.7" width="7.7" height="60.6" transform="translate(-137.76 121.39) rotate(-45)"/><rect class="cls-1" x="4.51" y="223.15" width="60.6" height="7.7" transform="translate(-150.32 91.1) rotate(-45)"/><path class="cls-1" d="M39.23,68.05c-9.35,0-16.95-7.61-16.95-16.95s7.61-16.95,16.95-16.95,16.95,7.61,16.95,16.95-7.61,16.95-16.95,16.95ZM39.23,41.84c-5.1,0-9.26,4.15-9.26,9.26s4.15,9.26,9.26,9.26,9.26-4.15,9.26-9.26-4.15-9.26-9.26-9.26Z"/><path class="cls-1" d="M70.52,68.05c-9.35,0-16.95-7.61-16.95-16.95s7.61-16.95,16.95-16.95,16.95,7.61,16.95,16.95-7.61,16.95-16.95,16.95ZM70.52,41.84c-5.1,0-9.26,4.15-9.26,9.26s4.15,9.26,9.26,9.26,9.26-4.15,9.26-9.26-4.15-9.26-9.26-9.26Z"/><polygon class="cls-1" points=".1 60.63 0 53.02 27.01 47.29 28.18 54.9 .1 60.63"/><polygon class="cls-1" points="112.92 60.63 81.15 54.9 82.31 47.29 112.87 53.02 112.92 60.63"/></svg>