<?xml version="1.0" encoding="UTF-8"?><svg id="Layer_1" xmlns="http://www.w3.org/2000/svg" viewBox="0 0 112.87 302.16"><defs><style>.cls-1{fill:#231f20;stroke-width:0px;}</style></defs><path class="cls-1" d="M56.44,163.99C25.3,163.99-.03,138.66-.03,107.52s25.33-56.47,56.47-56.47,56.47,25.33,56.47,56.47-25.33,56.47-56.47,56.47ZM56.44,58.77c-26.89,0-48.76,21.87-48.76,48.76s21.88,48.76,48.76,48.76,48.76-21.87,48.76-48.76-21.87-48.76-48.76-48.76Z"/><rect class="cls-1" x="52.58" y="160.14" width="7.71" height="104.06"/><rect class="cls-1" x="31.14" y="165.37" width="7.71" height="60.66" transform="translate(-128.14 82.06) rotate(-45)"/><rect class="cls-1" x="47.55" y="191.85" width="60.66" height="7.71" transform="translate(-115.57 112.39) rotate(-45)"/><rect class="cls-1" x="74.03" y="247.8" width="7.71" height="60.66" transform="translate(-173.85 136.53) rotate(-45)"/><rect class="cls-1" x="4.66" y="274.27" width="60.66" height="7.71" transform="translate(-186.42 106.2) rotate(-45)"/><polygon class="cls-1" points="9.52 75.61 77.81 0 105.39 99.95 9.52 75.61"/></svg>