<?xml version="1.0" encoding="UTF-8"?><svg id="Layer_1" xmlns="http://www.w3.org/2000/svg" viewBox="0 0 112.87 251.1"><defs><style>.cls-1{fill:#231f20;stroke-width:0px;}</style></defs><path class="cls-1" d="M56.44,112.87C25.32,112.87,0,87.55,0,56.44S25.32,0,56.44,0s56.43,25.32,56.43,56.44-25.32,56.43-56.43,56.43ZM56.44,7.7C29.57,7.7,7.7,29.57,7.7,56.44s21.86,48.73,48.73,48.73,48.73-21.86,48.73-48.73S83.31,7.7,56.44,7.7Z"/><rect class="cls-1" x="52.58" y="109.02" width="7.7" height="104"/><rect class="cls-1" x="31.15" y="114.25" width="7.7" height="60.63" transform="translate(-91.97 67.09) rotate(-45)"/><rect class="cls-1" x="47.56" y="140.72" width="60.63" height="7.7" transform="translate(-79.42 97.41) rotate(-45)"/><rect class="cls-1" x="74.02" y="196.63" width="7.7" height="60.63" transform="translate(-137.66 121.53) rotate(-45)"/><rect class="cls-1" x="4.69" y="223.09" width="60.63" height="7.7" transform="translate(-150.22 91.22) rotate(-45)"/></svg>