<?xml version="1.0" encoding="UTF-8"?><svg id="Layer_1" xmlns="http://www.w3.org/2000/svg" viewBox="0 0 113 251.38"><defs><style>.cls-1,.cls-2{stroke-width:0px;}.cls-2{fill:#231f20;}</style></defs><path class="cls-2" d="M56.5,113C25.35,113,0,87.65,0,56.5S25.35,0,56.5,0s56.5,25.35,56.5,56.5-25.34,56.5-56.5,56.5ZM56.5,7.71C29.6,7.71,7.71,29.6,7.71,56.5s21.89,48.79,48.79,48.79,48.79-21.89,48.79-48.79S83.4,7.71,56.5,7.71Z"/><rect class="cls-2" x="52.64" y="109.14" width="7.71" height="104.12"/><rect class="cls-2" x="31.18" y="114.38" width="7.71" height="60.7" transform="translate(-92.07 67.17) rotate(-45)"/><rect class="cls-2" x="47.61" y="140.87" width="60.7" height="7.71" transform="translate(-79.5 97.51) rotate(-45)"/><rect class="cls-2" x="74.1" y="196.85" width="7.71" height="60.7" transform="translate(-137.82 121.67) rotate(-45)"/><rect class="cls-2" x="4.69" y="223.34" width="60.7" height="7.71" transform="translate(-150.39 91.32) rotate(-45)"/><path class="cls-1" d="M56.66,75.28c-1.94,1.36-3.75,2.74-5.67,3.95-3.58,2.25-7.51,3.5-11.73,3.87-3.58.32-7.07-.03-10.46-1.23-3.28-1.16-6.14-2.89-7.71-6.18-1.78-3.73-1.65-7.38.77-10.78,1.26-1.77,3.03-2.82,5.32-2.53,1.49.19,2.46,1.12,3.06,2.45.11.23.07.52.12.93-.25-.14-.37-.17-.45-.25-1.98-1.95-4.16-1.54-5.13,1.04-.57,1.49-.48,3,.45,4.37.71,1.05,2.04,1.39,3.39.98,2.73-.83,4.93-2.54,7.16-4.22,2.06-1.55,4.15-3.09,6.38-4.37,3.04-1.76,6.34-2.08,9.73-1.06,1.77.53,3.13,1.44,4.64,3.07.67-.55,1.27-1.21,2.01-1.64,4.05-2.34,8.15-2.24,12.27-.14,2.84,1.44,5.13,3.65,7.67,5.51,1.7,1.24,3.52,2.34,5.37,3.35,1.18.65,2.5.75,3.63-.25,1.13-1,1.39-2.33,1.19-3.75-.14-1.01-.53-1.95-1.34-2.64-1.18-1.02-2.66-.96-3.76.13-.18.18-.34.36-.52.54-.08-.03-.16-.06-.24-.09.07-.31.07-.65.21-.93,1.16-2.35,3.76-3.07,6.04-1.66,2.72,1.69,3.87,4.27,4.02,7.36.28,5.6-3.23,9.4-7.73,11.02-7.64,2.76-14.98,1.81-22.06-1.92-2.49-1.31-4.64-3.08-6.64-4.92Z"/></svg>