<?xml version="1.0" encoding="UTF-8"?><svg id="Layer_1" xmlns="http://www.w3.org/2000/svg" viewBox="0 0 133.38 251.1"><defs><style>.cls-1{fill:#231f20;stroke-width:0px;}</style></defs><path class="cls-1" d="M58.91,112.93c-31.14,0-56.47-25.33-56.47-56.47S27.78,0,58.91,0s56.47,25.33,56.47,56.47-25.33,56.47-56.47,56.47ZM58.91,7.71c-26.89,0-48.76,21.87-48.76,48.76s21.87,48.76,48.76,48.76,48.76-21.87,48.76-48.76S85.8,7.71,58.91,7.71Z"/><rect class="cls-1" x="55.06" y="109.08" width="7.71" height="104.06"/><rect class="cls-1" x="26.44" y="95.61" width="7.71" height="60.66" transform="translate(-98.58 112.81) rotate(-70.66)"/><polygon class="cls-1" points="57.84 141.8 56.59 134.2 100.76 126.93 71.8 117.56 74.17 110.23 133.38 129.37 57.84 141.8"/><rect class="cls-1" x="76.51" y="196.74" width="7.71" height="60.66" transform="translate(-137.02 123.33) rotate(-45)"/><rect class="cls-1" x="7.13" y="223.21" width="60.66" height="7.71" transform="translate(-149.59 93) rotate(-45)"/></svg>