<?xml version="1.0" encoding="UTF-8"?><svg id="Layer_1" xmlns="http://www.w3.org/2000/svg" viewBox="0 0 112.87 251.1"><defs><style>.cls-1{fill:#231f20;stroke-width:0px;}</style></defs><rect class="cls-1" x="47.56" y="141.05" width="60.6" height="7.7" transform="translate(-79.66 97.5) rotate(-45)"/><path class="cls-1" d="M56.43,113.22C25.33,113.22.03,87.92.03,56.81S25.33.41,56.43.41s56.41,25.3,56.41,56.41-25.31,56.41-56.41,56.41ZM56.43,8.11C29.58,8.11,7.73,29.96,7.73,56.81s21.85,48.71,48.71,48.71,48.71-21.85,48.71-48.71S83.29,8.11,56.43,8.11Z"/><rect class="cls-1" x="52.58" y="109.37" width="7.7" height="103.95"/><rect class="cls-1" x="31.16" y="114.6" width="7.7" height="60.6" transform="translate(-92.2 67.19) rotate(-45)"/><rect class="cls-1" x="74.01" y="196.94" width="7.7" height="60.6" transform="translate(-137.88 121.62) rotate(-45)"/><rect class="cls-1" x="4.71" y="223.39" width="60.6" height="7.7" transform="translate(-150.43 91.31) rotate(-45)"/><path class="cls-1" d="M12.62,82.74H0s0-21.59.03-30.14C.11,27.98,23.53,0,54.15,0c32.59,0,58.72,29.52,58.72,54.9v28.34l-10.69-2.75s-5.26-.6-8.69-4.95c-10.97-13.91-35.51-43.1-48.23-43.1-12.07,0-18.64,29.87-24.18,44.44-2.13,5.59-8.46,5.86-8.46,5.86Z"/></svg>