<?xml version="1.0" encoding="UTF-8"?><svg id="Layer_1" xmlns="http://www.w3.org/2000/svg" viewBox="0 0 661.36 302.44"><defs><style>.cls-1,.cls-2{stroke-width:0px;}.cls-2{fill:#231f20;}</style></defs><path class="cls-2" d="M56.5,163.92c-31.15,0-56.5-25.35-56.5-56.5s25.35-56.5,56.5-56.5,56.5,25.35,56.5,56.5-25.34,56.5-56.5,56.5ZM56.5,58.63c-26.9,0-48.79,21.89-48.79,48.79s21.89,48.79,48.79,48.79,48.79-21.89,48.79-48.79-21.89-48.79-48.79-48.79Z"/><rect class="cls-2" x="52.64" y="160.06" width="7.71" height="104.12"/><rect class="cls-2" x="31.18" y="165.3" width="7.71" height="60.7" transform="translate(-128.08 82.08) rotate(-45)"/><rect class="cls-2" x="47.61" y="191.79" width="60.7" height="7.71" transform="translate(-115.51 112.43) rotate(-45)"/><rect class="cls-2" x="74.1" y="247.77" width="7.71" height="60.7" transform="translate(-173.82 136.59) rotate(-45)"/><rect class="cls-2" x="4.69" y="274.26" width="60.7" height="7.71" transform="translate(-186.39 106.23) rotate(-45)"/><path class="cls-1" d="M56.66,126.2c-1.94,1.36-3.75,2.74-5.67,3.95-3.58,2.25-7.51,3.5-11.73,3.87-3.58.32-7.07-.03-10.46-1.23-3.28-1.16-6.14-2.89-7.71-6.18-1.78-3.73-1.65-7.38.77-10.78,1.26-1.77,3.03-2.82,5.32-2.53,1.49.19,2.46,1.12,3.06,2.45.11.23.07.52.12.93-.25-.14-.37-.17-.45-.25-1.98-1.95-4.16-1.54-5.13,1.04-.57,1.49-.48,3,.45,4.37.71,1.05,2.04,1.39,3.39.98,2.73-.83,4.93-2.54,7.16-4.22,2.06-1.55,4.15-3.09,6.38-4.37,3.04-1.76,6.34-2.08,9.73-1.06,1.77.53,3.13,1.44,4.64,3.07.67-.55,1.27-1.21,2.01-1.64,4.05-2.34,8.15-2.24,12.27-.14,2.84,1.44,5.13,3.65,7.67,5.51,1.7,1.24,3.52,2.34,5.37,3.35,1.18.65,2.5.75,3.63-.25,1.13-1,1.39-2.33,1.19-3.75-.14-1.01-.53-1.95-1.34-2.64-1.18-1.02-2.66-.96-3.76.13-.18.18-.34.36-.52.54-.08-.03-.16-.06-.24-.09.07-.31.07-.65.21-.93,1.16-2.35,3.76-3.07,6.04-1.66,2.72,1.69,3.87,4.27,4.02,7.36.28,5.6-3.23,9.4-7.73,11.02-7.64,2.76-14.98,1.81-22.06-1.92-2.49-1.31-4.64-3.08-6.64-4.92Z"/><rect class="cls-2" x="180.9" y="192.11" width="60.6" height="7.7" transform="translate(-76.7 206.73) rotate(-45)"/><path class="cls-2" d="M189.77,164.28c-31.1,0-56.41-25.3-56.41-56.41s25.3-56.41,56.41-56.41,56.41,25.3,56.41,56.41-25.31,56.41-56.41,56.41ZM189.77,59.16c-26.86,0-48.71,21.85-48.71,48.71s21.85,48.71,48.71,48.71,48.71-21.85,48.71-48.71-21.85-48.71-48.71-48.71Z"/><rect class="cls-2" x="185.92" y="160.43" width="7.7" height="103.95"/><rect class="cls-2" x="164.5" y="165.66" width="7.7" height="60.6" transform="translate(-89.25 176.43) rotate(-45)"/><rect class="cls-2" x="207.35" y="247.99" width="7.7" height="60.6" transform="translate(-134.93 230.86) rotate(-45)"/><rect class="cls-2" x="138.05" y="274.44" width="60.6" height="7.7" transform="translate(-147.47 200.55) rotate(-45)"/><path class="cls-2" d="M145.96,133.8h-12.62s0-21.59.03-30.14c.08-24.63,23.51-52.6,54.12-52.6,32.59,0,58.72,29.52,58.72,54.9v28.34l-10.69-2.75s-5.26-.6-8.69-4.95c-10.97-13.91-35.51-43.1-48.23-43.1-12.07,0-18.64,29.87-24.18,44.44-2.13,5.59-8.46,5.86-8.46,5.86Z"/><path class="cls-2" d="M330.2,164.04c-31.22,0-56.61-25.4-56.61-56.61s25.4-56.61,56.61-56.61,56.61,25.4,56.61,56.61-25.39,56.61-56.61,56.61ZM330.2,58.55c-26.95,0-48.89,21.93-48.89,48.88s21.93,48.88,48.89,48.88,48.88-21.93,48.88-48.88-21.93-48.88-48.88-48.88Z"/><rect class="cls-2" x="326.15" y="160.19" width="7.7" height="103.95"/><rect class="cls-2" x="304.72" y="165.42" width="7.7" height="60.6" transform="translate(-48.02 275.52) rotate(-45)"/><rect class="cls-2" x="321.12" y="191.87" width="60.6" height="7.7" transform="translate(-35.47 305.82) rotate(-45)"/><rect class="cls-2" x="347.57" y="247.76" width="7.7" height="60.6" transform="translate(-93.69 329.92) rotate(-45)"/><rect class="cls-2" x="278.27" y="274.21" width="60.6" height="7.7" transform="translate(-106.24 299.64) rotate(-45)"/><path class="cls-2" d="M312.99,119.1c-9.35,0-16.95-7.61-16.95-16.95s7.61-16.95,16.95-16.95,16.95,7.61,16.95,16.95-7.61,16.95-16.95,16.95ZM312.99,92.89c-5.1,0-9.26,4.15-9.26,9.26s4.15,9.26,9.26,9.26,9.26-4.15,9.26-9.26-4.15-9.26-9.26-9.26Z"/><path class="cls-2" d="M344.28,119.1c-9.35,0-16.95-7.61-16.95-16.95s7.61-16.95,16.95-16.95,16.95,7.61,16.95,16.95-7.61,16.95-16.95,16.95ZM344.28,92.89c-5.1,0-9.26,4.15-9.26,9.26s4.15,9.26,9.26,9.26,9.26-4.15,9.26-9.26-4.15-9.26-9.26-9.26Z"/><polygon class="cls-2" points="273.86 111.69 273.77 104.08 300.78 98.34 301.94 105.95 273.86 111.69"/><polygon class="cls-2" points="386.69 111.69 354.91 105.95 356.07 98.34 386.64 104.08 386.69 111.69"/><path class="cls-2" d="M465.52,163.99c-31.14,0-56.47-25.33-56.47-56.47s25.33-56.47,56.47-56.47,56.47,25.33,56.47,56.47-25.33,56.47-56.47,56.47ZM465.52,58.77c-26.89,0-48.76,21.87-48.76,48.76s21.88,48.76,48.76,48.76,48.76-21.87,48.76-48.76-21.87-48.76-48.76-48.76Z"/><rect class="cls-2" x="461.67" y="160.14" width="7.71" height="104.06"/><rect class="cls-2" x="440.22" y="165.37" width="7.71" height="60.66" transform="translate(-8.32 371.33) rotate(-45)"/><rect class="cls-2" x="456.64" y="191.85" width="60.66" height="7.71" transform="translate(4.25 401.66) rotate(-45)"/><rect class="cls-2" x="483.11" y="247.8" width="7.71" height="60.66" transform="translate(-54.04 425.78) rotate(-45)"/><rect class="cls-2" x="413.74" y="274.27" width="60.66" height="7.71" transform="translate(-66.6 395.47) rotate(-45)"/><polygon class="cls-2" points="418.61 75.61 486.89 0 514.47 99.95 418.61 75.61"/><path class="cls-2" d="M604.92,163.93c-31.12,0-56.43-25.32-56.43-56.44s25.32-56.44,56.43-56.44,56.43,25.32,56.43,56.44-25.32,56.44-56.43,56.44ZM604.92,58.76c-26.87,0-48.73,21.86-48.73,48.73s21.86,48.73,48.73,48.73,48.73-21.86,48.73-48.73-21.86-48.73-48.73-48.73Z"/><rect class="cls-2" x="601.07" y="160.08" width="7.7" height="104"/><rect class="cls-2" x="579.64" y="165.31" width="7.7" height="60.63" transform="translate(32.57 469.89) rotate(-45)"/><rect class="cls-2" x="596.04" y="191.77" width="60.63" height="7.7" transform="translate(45.13 500.2) rotate(-45)"/><rect class="cls-2" x="622.51" y="247.68" width="7.7" height="60.63" transform="translate(-13.12 524.33) rotate(-45)"/><rect class="cls-2" x="553.17" y="274.15" width="60.63" height="7.7" transform="translate(-25.68 494.01) rotate(-45)"/><polygon class="cls-2" points="643.08 124.32 599.68 124.32 599.68 116.62 609.64 116.62 597.99 110.96 601.36 104.03 643.08 124.32"/></svg>