<svg xmlns="http://www.w3.org/2000/svg" xmlns:xlink="http://www.w3.org/1999/xlink" version="1.1" width="158" height="158">
<!-- Created with Pivot Animator (http://pivotanimator.net) -->
<rect x="0" y="0" width="158" height="158" style="fill:rgb(255,255,255)"/>
<g id="fig0" opacity="1" stroke-linecap="round" stroke-linejoin="round">
<image xlink:href="wheel_2_0.png" x="0" y="-167" width="168" height="167" transform="translate(7.309 125.894) scale(0.396)  rotate(41.28) "/>
<circle cx="54.288" cy="123.4" r="29.509" style="stroke-width:3.96;fill:none;stroke:rgb(0,0,0)"/>
<line x1="84.307" y1="127.622" x2="83.464" y2="118.978" style="stroke-width:3.96;stroke:rgb(0,0,0)"/>
<line x1="79.67" y1="138.305" x2="84.307" y2="127.622" style="stroke-width:3.96;stroke:rgb(0,0,0)"/>
<line x1="73.698" y1="145.709" x2="79.67" y2="138.305" style="stroke-width:3.96;stroke:rgb(0,0,0)"/>
<line x1="63.406" y1="151.429" x2="73.698" y2="145.709" style="stroke-width:3.96;stroke:rgb(0,0,0)"/>
<line x1="55.06" y1="152.533" x2="63.406" y2="151.429" style="stroke-width:3.96;stroke:rgb(0,0,0)"/>
<line x1="47.163" y1="151.924" x2="55.06" y2="152.533" style="stroke-width:3.96;stroke:rgb(0,0,0)"/>
<line x1="35.028" y1="146.54" x2="47.163" y2="151.924" style="stroke-width:3.96;stroke:rgb(0,0,0)"/>
<line x1="35.028" y1="146.54" x2="27.37" y2="136.655" style="stroke-width:3.96;stroke:rgb(0,0,0)"/>
<line x1="25.112" y1="127.823" x2="23.747" y2="119.774" style="stroke-width:3.96;stroke:rgb(0,0,0)"/>
<line x1="23.747" y1="119.774" x2="27.375" y2="110.839" style="stroke-width:3.96;stroke:rgb(0,0,0)"/>
<line x1="27.375" y1="110.839" x2="31.337" y2="102.725" style="stroke-width:3.96;stroke:rgb(0,0,0)"/>
<line x1="31.337" y1="102.725" x2="40.213" y2="96.816" style="stroke-width:3.96;stroke:rgb(0,0,0)"/>
<line x1="40.213" y1="96.816" x2="49.532" y2="93.404" style="stroke-width:3.96;stroke:rgb(0,0,0)"/>
<line x1="49.532" y1="93.404" x2="59.366" y2="93.606" style="stroke-width:3.96;stroke:rgb(0,0,0)"/>
<line x1="59.366" y1="93.606" x2="70.87" y2="97.909" style="stroke-width:3.96;stroke:rgb(0,0,0)"/>
<line x1="70.87" y1="97.909" x2="78.383" y2="105.558" style="stroke-width:3.96;stroke:rgb(0,0,0)"/>
<line x1="50.965" y1="128.387" x2="35.028" y2="146.54" style="stroke-width:0.396;stroke:rgb(0,0,0)"/>
<line x1="58.302" y1="129.032" x2="50.965" y2="128.387" style="stroke-width:0.396;stroke:rgb(0,0,0)"/>
<line x1="61.401" y1="124.902" x2="58.302" y2="129.032" style="stroke-width:0.396;stroke:rgb(0,0,0)"/>
<line x1="58.65" y1="121.433" x2="61.401" y2="124.902" style="stroke-width:0.396;stroke:rgb(0,0,0)"/>
<line x1="55.789" y1="122.655" x2="55.935" y2="118.523" style="stroke-width:0.396;stroke:rgb(0,0,0)"/>
</g>
<g id="fig1" opacity="1" stroke-linecap="round" stroke-linejoin="round">
<image xlink:href="wheel_2_0.png" x="0" y="-167" width="168" height="167" transform="translate(87.229 144.89) scale(0.1782)  rotate(40.766) "/>
<circle cx="108.359" cy="143.578" r="13.279" style="stroke-width:1.782;fill:none;stroke:rgb(0,0,0)"/>
<line x1="121.883" y1="145.357" x2="121.469" y2="141.47" style="stroke-width:1.782;stroke:rgb(0,0,0)"/>
<line x1="119.84" y1="150.183" x2="121.883" y2="145.357" style="stroke-width:1.782;stroke:rgb(0,0,0)"/>
<line x1="117.182" y1="153.538" x2="119.84" y2="150.183" style="stroke-width:1.782;stroke:rgb(0,0,0)"/>
<line x1="112.575" y1="156.154" x2="117.182" y2="153.538" style="stroke-width:1.782;stroke:rgb(0,0,0)"/>
<line x1="108.823" y1="156.684" x2="112.575" y2="156.154" style="stroke-width:1.782;stroke:rgb(0,0,0)"/>
<line x1="105.268" y1="156.442" x2="108.823" y2="156.684" style="stroke-width:1.782;stroke:rgb(0,0,0)"/>
<line x1="99.785" y1="154.068" x2="105.268" y2="156.442" style="stroke-width:1.782;stroke:rgb(0,0,0)"/>
<line x1="99.785" y1="154.068" x2="96.299" y2="149.651" style="stroke-width:1.782;stroke:rgb(0,0,0)"/>
<line x1="95.248" y1="145.686" x2="94.601" y2="142.07" style="stroke-width:1.782;stroke:rgb(0,0,0)"/>
<line x1="94.601" y1="142.07" x2="96.198" y2="138.035" style="stroke-width:1.782;stroke:rgb(0,0,0)"/>
<line x1="96.198" y1="138.035" x2="97.948" y2="134.367" style="stroke-width:1.782;stroke:rgb(0,0,0)"/>
<line x1="97.948" y1="134.367" x2="101.918" y2="131.673" style="stroke-width:1.782;stroke:rgb(0,0,0)"/>
<line x1="101.918" y1="131.673" x2="106.097" y2="130.1" style="stroke-width:1.782;stroke:rgb(0,0,0)"/>
<line x1="106.097" y1="130.1" x2="110.523" y2="130.151" style="stroke-width:1.782;stroke:rgb(0,0,0)"/>
<line x1="110.523" y1="130.151" x2="115.717" y2="132.041" style="stroke-width:1.782;stroke:rgb(0,0,0)"/>
<line x1="115.717" y1="132.041" x2="119.129" y2="135.452" style="stroke-width:1.782;stroke:rgb(0,0,0)"/>
<line x1="106.883" y1="145.835" x2="99.785" y2="154.068" style="stroke-width:0.178;stroke:rgb(0,0,0)"/>
<line x1="110.188" y1="146.096" x2="106.883" y2="145.835" style="stroke-width:0.178;stroke:rgb(0,0,0)"/>
<line x1="111.565" y1="144.225" x2="110.188" y2="146.096" style="stroke-width:0.178;stroke:rgb(0,0,0)"/>
<line x1="110.313" y1="142.675" x2="111.565" y2="144.225" style="stroke-width:0.178;stroke:rgb(0,0,0)"/>
<line x1="109.031" y1="143.237" x2="109.08" y2="141.377" style="stroke-width:0.178;stroke:rgb(0,0,0)"/>
</g>
<g id="fig2" opacity="1" stroke-linecap="round" stroke-linejoin="round">
<line x1="99.508" y1="97.344" x2="84.92" y2="52.119" style="stroke-width:5.94;stroke:rgb(0,0,0)"/>
<circle cx="80.653" cy="27.946" r="24.547" style="stroke-width:5.94;fill:rgb(255,255,255);stroke:rgb(0,0,0)"/>
<line x1="84.92" y1="52.119" x2="83.647" y2="88.435" style="stroke-width:5.94;stroke:rgb(0,0,0)"/>
<line x1="83.647" y1="88.435" x2="102.428" y2="86.191" style="stroke-width:5.94;stroke:rgb(0,0,0)"/>
<line x1="84.92" y1="52.119" x2="104.13" y2="82.964" style="stroke-width:5.94;stroke:rgb(0,0,0)"/>
<line x1="104.13" y1="82.964" x2="122.407" y2="78.411" style="stroke-width:5.94;stroke:rgb(0,0,0)"/>
<line x1="99.508" y1="97.344" x2="126.654" y2="111.147" style="stroke-width:5.94;stroke:rgb(0,0,0)"/>
<line x1="126.654" y1="111.147" x2="137.164" y2="133.555" style="stroke-width:5.94;stroke:rgb(0,0,0)"/>
<line x1="99.508" y1="97.344" x2="127.964" y2="110.849" style="stroke-width:6.188;stroke:rgb(0,0,0)"/>
<line x1="127.964" y1="110.849" x2="140.835" y2="130.832" style="stroke-width:5.94;stroke:rgb(0,0,0)"/>
</g>
<g id="fig3" opacity="1" stroke-linecap="round" stroke-linejoin="round">
<image xlink:href="wheelchair_4_0.png" x="0" y="-345" width="454" height="345" transform="translate(15.853 143.874) scale(0.297) "/>
</g>
</svg>
