<?xml version="1.0" encoding="UTF-8"?><svg id="Layer_1" xmlns="http://www.w3.org/2000/svg" viewBox="0 0 140.87 45.98"><defs><style>.cls-1{fill:#262324;stroke-width:0px;}</style></defs><rect class="cls-1" x="15.55" width="109.77" height="2.45"/><rect class="cls-1" x="15.55" y="43.52" width="109.77" height="2.45"/><rect class="cls-1" y="15.55" width="2.45" height="14.88"/><rect class="cls-1" x="2.46" y="12.27" width="3.27" height="3.27"/><rect class="cls-1" x="2.46" y="9" width="3.27" height="3.27"/><rect class="cls-1" x="9" y="2.45" width="3.27" height="3.27" transform="translate(14.73 -6.55) rotate(90)"/><rect class="cls-1" x="12.28" y="2.45" width="3.27" height="3.27" transform="translate(18.01 -9.82) rotate(90)"/><rect class="cls-1" x="5.73" y="5.73" width="3.27" height="3.27"/><rect class="cls-1" x="2.46" y="30.43" width="3.27" height="3.27"/><rect class="cls-1" x="2.46" y="33.7" width="3.27" height="3.27"/><rect class="cls-1" x="9" y="40.25" width="3.27" height="3.27" transform="translate(-31.24 52.52) rotate(-90)"/><rect class="cls-1" x="12.28" y="40.25" width="3.27" height="3.27" transform="translate(-27.97 55.8) rotate(-90)"/><rect class="cls-1" x="5.73" y="36.97" width="3.27" height="3.27"/><rect class="cls-1" x="138.41" y="15.55" width="2.45" height="14.88"/><rect class="cls-1" x="135.14" y="12.27" width="3.27" height="3.27" transform="translate(273.55 27.82) rotate(-180)"/><rect class="cls-1" x="135.14" y="9" width="3.27" height="3.27" transform="translate(273.55 21.28) rotate(-180)"/><rect class="cls-1" x="128.59" y="2.45" width="3.27" height="3.27" transform="translate(134.32 -126.14) rotate(90)"/><rect class="cls-1" x="125.32" y="2.45" width="3.27" height="3.27" transform="translate(131.05 -122.86) rotate(90)"/><rect class="cls-1" x="131.87" y="5.73" width="3.27" height="3.27" transform="translate(267 14.73) rotate(-180)"/><rect class="cls-1" x="135.14" y="30.43" width="3.27" height="3.27" transform="translate(273.55 64.13) rotate(-180)"/><rect class="cls-1" x="135.14" y="33.7" width="3.27" height="3.27" transform="translate(273.55 70.67) rotate(-180)"/><rect class="cls-1" x="128.59" y="40.25" width="3.27" height="3.27" transform="translate(88.35 172.11) rotate(-90)"/><rect class="cls-1" x="125.32" y="40.25" width="3.27" height="3.27" transform="translate(85.07 168.84) rotate(-90)"/><rect class="cls-1" x="131.87" y="36.97" width="3.27" height="3.27" transform="translate(267 77.22) rotate(-180)"/></svg>