<?xml version="1.0" encoding="UTF-8"?><svg id="Layer_1" xmlns="http://www.w3.org/2000/svg" viewBox="0 0 374.26 31.67"><defs><style>.cls-1{fill:#fff;stroke-width:0px;}</style></defs><path class="cls-1" d="M230.57,4.49v17.96h-4.49v4.49h-4.49v4.49h-17.96v-4.49h-4.49V4.49h4.49V0h22.45v4.49h4.49ZM221.59,4.49h-13.47v22.45h8.98v-4.49h-4.49v-4.49h8.98V4.49ZM226.08,31.43v-4.49h4.49v4.49h-4.49Z"/><path class="cls-1" d="M239.55,31.43v-4.49h-4.49V0h8.98v26.94h13.47V0h8.98v26.94h-4.49v4.49h-22.45Z"/><path class="cls-1" d="M270.99,31.43V0h31.43v4.49h-22.45v8.98h17.96v4.49h-17.96v8.98h22.45v4.49h-31.43Z"/><path class="cls-1" d="M311.4,31.43v-4.49h-4.49v-4.49h8.98v4.49h13.47v-8.98h-17.96v-4.49h-4.49V4.49h4.49V0h22.45v4.49h4.49v4.49h-8.98v-4.49h-13.47v8.98h17.96v4.49h4.49v8.98h-4.49v4.49h-22.45Z"/><path class="cls-1" d="M356.3,31.43V4.49h-8.98V0h26.94v4.49h-8.98v26.94h-8.98Z"/><path class="cls-1" d="M9.05,31.67v-4.52h-4.52v-4.52H0v-13.57h4.52v-4.52h4.52V0h18.1v4.52h4.52v4.52h-9.05v-4.52h-9.05v4.52h-4.52v13.57h4.52v4.52h9.05v-4.52h9.05v4.52h-4.52v4.52H9.05Z"/><path class="cls-1" d="M40.72,31.67v-4.52h-4.52V4.52h4.52V0h22.62v4.52h4.52v22.62h-4.52v4.52h-22.62ZM45.24,27.15h13.57V4.52h-13.57v22.62Z"/><path class="cls-1" d="M72.39,31.67V0h22.62v4.52h4.52v4.52h4.52v13.57h-4.52v4.52h-4.52v4.52h-22.62ZM81.44,27.15h9.05v-4.52h4.52v-13.57h-4.52v-4.52h-9.05v22.62Z"/><path class="cls-1" d="M108.59,31.67V0h31.67v4.52h-22.62v9.05h18.1v4.52h-18.1v9.05h22.62v4.52h-31.67Z"/><rect class="cls-1" x="167.42" y="4.52" width="4.51" height="4.51"/><rect class="cls-1" x="162.9" y="0" width="4.51" height="4.51"/><rect class="cls-1" x="176.45" y="13.55" width="4.51" height="4.51"/><rect class="cls-1" x="171.93" y="9.03" width="4.51" height="4.51"/><rect class="cls-1" x="167.42" y="22.57" width="4.51" height="4.51"/><rect class="cls-1" x="162.9" y="27.09" width="4.51" height="4.51"/><rect class="cls-1" x="176.45" y="13.55" width="4.51" height="4.51"/><rect class="cls-1" x="171.93" y="18.06" width="4.51" height="4.51"/></svg>