<?xml version="1.0" encoding="UTF-8"?><svg id="Layer_1" xmlns="http://www.w3.org/2000/svg" viewBox="0 0 187.97 171.85"><defs><style>.cls-1{fill:#fff;}.cls-1,.cls-2{stroke-width:0px;}.cls-2{fill:#231f20;}</style></defs><polygon class="cls-1" points="7.38 66.39 40.79 66.39 40.79 59.01 54.01 59.01 54.01 51.63 73.6 51.63 73.6 44.26 86.81 44.26 86.81 36.88 94.21 36.88 94.21 29.51 106.83 29.51 106.83 22.13 114.21 22.13 114.21 14.75 121.59 14.75 121.59 7.38 128.96 7.38 128.96 17.16 136.34 17.16 136.34 50.54 143.72 50.54 143.72 57.92 151.09 57.92 151.09 65.29 158.47 65.29 158.47 72.67 165.84 72.67 165.84 80.05 173.22 80.05 173.22 87.42 180.6 87.42 180.6 94.8 173.22 94.8 173.22 102.17 165.84 102.17 165.84 112.84 158.47 112.84 158.47 120.21 151.09 120.21 151.09 127.59 139.13 127.59 139.13 134.97 127.17 134.97 127.17 142.34 115.21 142.34 115.21 149.72 87.51 149.72 87.51 157.1 75.55 157.1 75.55 164.47 63.59 164.47 63.59 157.1 56.22 157.1 56.22 149.72 44.26 149.72 44.26 142.34 36.88 142.34 36.88 134.97 29.51 134.97 29.51 127.59 22.13 127.59 22.13 112.39 14.75 112.39 14.75 84.82 7.38 84.82 7.38 66.39"/><rect class="cls-2" x="73.6" y="36.88" width="13.21" height="7.38" transform="translate(160.41 81.14) rotate(-180)"/><rect class="cls-2" x="54.01" y="44.26" width="19.59" height="7.38" transform="translate(127.61 95.89) rotate(-180)"/><rect class="cls-2" x="40.79" y="51.63" width="13.21" height="7.38" transform="translate(94.8 110.65) rotate(-180)"/><rect class="cls-2" x="94.21" y="22.13" width="12.63" height="7.38" transform="translate(201.04 51.63) rotate(-180)"/><rect class="cls-2" x="86.83" y="29.51" width="7.38" height="7.38" transform="translate(181.03 66.39) rotate(-180)"/><rect class="cls-2" x="106.83" y="14.75" width="7.38" height="7.38" transform="translate(221.04 36.88) rotate(-180)"/><rect class="cls-2" x="114.21" y="7.38" width="7.38" height="7.38" transform="translate(235.8 22.13) rotate(-180)"/><rect class="cls-2" x="143.72" y="50.54" width="7.38" height="7.38" transform="translate(294.81 108.46) rotate(-180)"/><rect class="cls-2" x="119.94" y="64.71" width="7.38" height="20.11" transform="translate(247.26 149.53) rotate(-180)"/><rect class="cls-2" x="127.32" y="78.38" width="7.38" height="13.46" transform="translate(262.02 170.22) rotate(-180)"/><rect class="cls-2" x="134.7" y="85.11" width="7.38" height="13.46" transform="translate(276.77 183.68) rotate(-180)"/><rect class="cls-2" x="142.07" y="91.76" width="7.38" height="13.46" transform="translate(291.52 196.97) rotate(-180)"/><rect class="cls-2" x="112.57" y="36.88" width="7.38" height="34.4" transform="translate(232.51 108.17) rotate(-180)"/><rect class="cls-2" x="151.09" y="57.92" width="7.38" height="7.38" transform="translate(309.56 123.21) rotate(-180)"/><rect class="cls-2" x="158.47" y="65.29" width="7.38" height="7.38" transform="translate(324.31 137.96) rotate(-180)"/><rect class="cls-2" x="149.45" y="97.84" width="7.38" height="7.38" transform="translate(306.27 203.05) rotate(-180)"/><rect class="cls-2" x="99.69" y="72.04" width="7.38" height="20.11" transform="translate(206.76 164.19) rotate(-180)"/><rect class="cls-2" x="107.07" y="85.71" width="7.38" height="13.46" transform="translate(221.51 184.88) rotate(-180)"/><rect class="cls-2" x="114.44" y="92.44" width="7.38" height="13.46" transform="translate(236.26 198.34) rotate(-180)"/><rect class="cls-2" x="121.82" y="99.09" width="7.38" height="13.46" transform="translate(251.02 211.63) rotate(-180)"/><rect class="cls-2" x="92.31" y="50.54" width="7.38" height="28.08" transform="translate(192.01 129.16) rotate(-180)"/><rect class="cls-2" x="81.25" y="85.3" width="7.38" height="13.31" transform="translate(169.88 183.9) rotate(-180)"/><rect class="cls-2" x="88.63" y="98.6" width="7.38" height="13.46" transform="translate(184.63 210.67) rotate(-180)"/><rect class="cls-2" x="96" y="105.69" width="7.38" height="13.46" transform="translate(199.38 224.85) rotate(-180)"/><rect class="cls-2" x="103.38" y="112.34" width="7.38" height="13.46" transform="translate(214.13 238.14) rotate(-180)"/><rect class="cls-2" x="73.87" y="63.79" width="7.38" height="28.08" transform="translate(155.12 155.67) rotate(-180)"/><rect class="cls-2" x="129.2" y="112.55" width="10.66" height="7.38" transform="translate(269.05 232.47) rotate(-180)"/><rect class="cls-2" x="110.76" y="118.42" width="7.38" height="7.38" transform="translate(228.89 244.23) rotate(-180)"/><rect class="cls-2" x="61.38" y="92.03" width="7.38" height="20.04" transform="translate(130.14 204.09) rotate(-180)"/><rect class="cls-2" x="34.38" y="92.16" width="7.38" height="20.04" transform="translate(76.14 204.35) rotate(-180)"/><rect class="cls-2" x="68.76" y="105.33" width="7.38" height="13.46" transform="translate(144.89 224.12) rotate(-180)"/><rect class="cls-2" x="41.76" y="105.33" width="7.38" height="13.46" transform="translate(90.89 224.12) rotate(-180)"/><rect class="cls-2" x="49.13" y="112.06" width="7.38" height="13.46" transform="translate(105.64 237.58) rotate(-180)"/><rect class="cls-2" x="56.51" y="119.07" width="7.38" height="13.46" transform="translate(120.39 251.6) rotate(-180)"/><rect class="cls-2" x="76.14" y="112.42" width="7.38" height="13.46" transform="translate(159.65 238.31) rotate(-180)"/><rect class="cls-2" x="83.51" y="119.07" width="7.38" height="13.46" transform="translate(174.4 251.6) rotate(-180)"/><rect class="cls-2" x="54.01" y="72.04" width="7.38" height="26.56" transform="translate(115.39 170.64) rotate(-180)"/><rect class="cls-2" x="27" y="71.54" width="7.38" height="26.56" transform="translate(61.38 169.63) rotate(-180)"/><rect class="cls-2" x="90.89" y="125.15" width="7.38" height="7.38" transform="translate(189.15 257.68) rotate(-180)"/><rect class="cls-2" x="63.88" y="132.53" width="7.38" height="7.38" transform="translate(135.15 272.44) rotate(-180)"/><rect class="cls-2" x="165.84" y="72.67" width="7.38" height="7.38" transform="translate(339.07 152.71) rotate(-180)"/><rect class="cls-2" x="173.22" y="80.05" width="7.38" height="7.38" transform="translate(353.82 167.47) rotate(-180)"/><rect class="cls-2" x="180.6" y="87.42" width="7.38" height="7.38" transform="translate(368.57 182.22) rotate(-180)"/><rect class="cls-2" x="173.22" y="94.8" width="7.38" height="7.38" transform="translate(353.82 196.97) rotate(-180)"/><rect class="cls-2" x="158.47" y="112.84" width="7.38" height="7.38" transform="translate(324.31 233.05) rotate(-180)"/><rect class="cls-2" x="151.09" y="120.21" width="7.38" height="7.38" transform="translate(309.56 247.8) rotate(-180)"/><rect class="cls-2" x="56.22" y="157.1" width="7.38" height="7.38" transform="translate(119.81 321.57) rotate(-180)"/><rect class="cls-2" x="36.88" y="142.34" width="7.38" height="7.38" transform="translate(81.14 292.06) rotate(-180)"/><rect class="cls-2" x="29.51" y="134.97" width="7.38" height="7.38" transform="translate(66.39 277.31) rotate(-180)"/><rect class="cls-2" x="22.13" y="127.59" width="7.38" height="7.38" transform="translate(51.63 262.56) rotate(-180)"/><rect class="cls-2" x="14.75" y="112.39" width="7.38" height="15.2" transform="translate(36.88 239.98) rotate(-180)"/><rect class="cls-2" x="0" y="66.39" width="7.38" height="18.43" transform="translate(7.38 151.2) rotate(-180)"/><rect class="cls-2" x="7.38" y="84.82" width="7.38" height="27.57" transform="translate(22.13 197.21) rotate(-180)"/><rect class="cls-2" x="139.13" y="127.59" width="11.96" height="7.38" transform="translate(290.22 262.56) rotate(-180)"/><rect class="cls-2" x="127.17" y="134.97" width="11.96" height="7.38" transform="translate(266.3 277.31) rotate(-180)"/><rect class="cls-2" x="115.21" y="142.34" width="11.96" height="7.38" transform="translate(242.38 292.06) rotate(-180)"/><rect class="cls-2" x="75.55" y="157.1" width="11.96" height="7.38" transform="translate(163.07 321.57) rotate(-180)"/><rect class="cls-2" x="63.59" y="164.47" width="11.96" height="7.38" transform="translate(139.15 336.32) rotate(-180)"/><rect class="cls-2" x="44.26" y="149.72" width="11.96" height="7.38" transform="translate(100.48 306.82) rotate(-180)"/><rect class="cls-2" x="0" y="59.01" width="40.79" height="7.38" transform="translate(40.79 125.4) rotate(-180)"/><rect class="cls-2" x="87.51" y="149.72" width="27.7" height="7.38" transform="translate(202.73 306.82) rotate(-180)"/><rect class="cls-2" x="165.84" y="102.17" width="7.38" height="10.66" transform="translate(339.07 215.01) rotate(-180)"/><rect class="cls-2" x="121.59" y="0" width="7.38" height="7.38" transform="translate(250.55 7.38) rotate(-180)"/><rect class="cls-2" x="128.96" y="0" width="7.38" height="17.16" transform="translate(265.3 17.16) rotate(-180)"/><rect class="cls-2" x="136.34" y="17.16" width="7.38" height="33.38" transform="translate(280.06 67.7) rotate(-180)"/></svg>