<?xml version="1.0" encoding="UTF-8"?><svg id="Layer_1" xmlns="http://www.w3.org/2000/svg" viewBox="0 0 300.99 199.75"><defs><style>.cls-1{fill:#4a494a;}.cls-1,.cls-2,.cls-3,.cls-4,.cls-5{stroke-width:0px;}.cls-2{fill:#828383;}.cls-3{fill:#cccccb;}.cls-4{fill:#9e9f9f;}.cls-5{fill:#231f20;}</style></defs><rect class="cls-5" x="242.33" y="14.55" width="6.52" height="14.27" transform="translate(491.17 43.37) rotate(-180)"/><rect class="cls-5" x="248.85" y="28.82" width="6.52" height="14.27" transform="translate(504.21 71.91) rotate(-180)"/><rect class="cls-5" x="255.36" y="43.09" width="6.52" height="14.27" transform="translate(517.25 100.46) rotate(-180)"/><rect class="cls-5" x="268.4" y="65.97" width="6.52" height="14.27" transform="translate(543.32 146.21) rotate(-180)"/><rect class="cls-5" x="281.44" y="88.84" width="6.52" height="14.27" transform="translate(569.39 191.95) rotate(-180)"/><rect class="cls-5" x="287.96" y="103.11" width="6.52" height="14.27" transform="translate(582.43 220.5) rotate(-180)"/><rect class="cls-5" x="261.88" y="57.37" width="6.52" height="8.6" transform="translate(530.28 123.33) rotate(-180)"/><rect class="cls-5" x="274.92" y="80.24" width="6.52" height="8.6" transform="translate(556.36 169.08) rotate(-180)"/><rect class="cls-5" x="294.47" y="117.38" width="6.52" height="8.6" transform="translate(595.46 243.37) rotate(-180)"/><rect class="cls-5" x="203.09" y="0" width="25.27" height="7.38" transform="translate(431.45 7.38) rotate(-180)"/><rect class="cls-5" x="228.36" y="7.38" width="13.97" height="7.17" transform="translate(470.69 21.92) rotate(-180)"/><rect class="cls-5" x="280.51" y="125.98" width="13.97" height="7.38" transform="translate(574.98 259.34) rotate(-180)"/><rect class="cls-5" x="234.32" y="28.58" width="14.53" height="7.38" transform="translate(483.16 64.54) rotate(-180)"/><rect class="cls-5" x="220.35" y="35.96" width="13.97" height="7.38" transform="translate(454.66 79.29) rotate(-180)"/><rect class="cls-5" x="206.38" y="43.33" width="13.97" height="7.38" transform="translate(426.73 94.04) rotate(-180)"/><rect class="cls-5" x="192.45" y="50.71" width="13.97" height="7.38" transform="translate(398.87 108.8) rotate(-180)"/><rect class="cls-5" x="178.48" y="58.09" width="13.97" height="7.38" transform="translate(370.94 123.55) rotate(-180)"/><rect class="cls-5" x="164.52" y="65.46" width="13.97" height="7.64" transform="translate(343 138.57) rotate(-180)"/><rect class="cls-5" x="150.55" y="73.1" width="13.97" height="7.38" transform="translate(315.06 153.58) rotate(-180)"/><rect class="cls-5" x="136.58" y="80.48" width="13.97" height="7.38" transform="translate(287.13 168.33) rotate(-180)"/><rect class="cls-5" x="141.54" y="87.86" width="9" height="62.45" transform="translate(292.09 238.16) rotate(-180)"/><rect class="cls-5" x="99.62" y="66.39" width="13.97" height="7.38" transform="translate(213.2 140.15) rotate(-180)"/><rect class="cls-5" x="113.58" y="73.76" width="23" height="6.72" transform="translate(250.16 154.24) rotate(-180)"/><rect class="cls-5" x="262.03" y="133.36" width="18.48" height="7.38" transform="translate(542.53 274.09) rotate(-180)"/><rect class="cls-5" x="243.55" y="140.73" width="18.48" height="7.38" transform="translate(505.58 288.85) rotate(-180)"/><rect class="cls-5" x="225.08" y="148.11" width="18.48" height="7.38" transform="translate(468.63 303.6) rotate(-180)"/><rect class="cls-5" x="206.6" y="155.49" width="18.48" height="7.38" transform="translate(431.68 318.35) rotate(-180)"/><rect class="cls-5" x="188.13" y="162.86" width="18.48" height="7.38" transform="translate(394.73 333.1) rotate(-180)"/><rect class="cls-5" x="169.65" y="170.24" width="18.48" height="7.38" transform="translate(357.78 347.86) rotate(-180)"/><rect class="cls-5" x="73.76" y="51.63" width="18.48" height="7.38" transform="translate(166 110.65) rotate(-180)"/><rect class="cls-5" x="92.24" y="44.26" width="18.48" height="7.38" transform="translate(202.95 95.89) rotate(-180)"/><rect class="cls-5" x="110.72" y="36.88" width="18.48" height="7.38" transform="translate(239.91 81.14) rotate(-180)"/><rect class="cls-5" x="129.19" y="29.51" width="18.48" height="7.38" transform="translate(276.86 66.39) rotate(-180)"/><rect class="cls-5" x="147.67" y="22.13" width="18.48" height="7.38" transform="translate(313.81 51.63) rotate(-180)"/><rect class="cls-5" x="166.14" y="14.75" width="18.48" height="7.38" transform="translate(350.76 36.88) rotate(-180)"/><rect class="cls-5" x="184.62" y="7.38" width="18.48" height="7.38" transform="translate(387.71 22.13) rotate(-180)"/><rect class="cls-5" x="73.64" y="184.99" width="18.78" height="7.38" transform="translate(166.05 377.36) rotate(-180)"/><rect class="cls-5" x="7.38" y="184.99" width="7.38" height="7.38" transform="translate(22.13 377.36) rotate(-180)"/><rect class="cls-5" x="7.38" y="125.4" width="7.38" height="7.38" transform="translate(22.13 258.17) rotate(-180)"/><rect class="cls-5" x="14.75" y="132.77" width="7.38" height="7.38" transform="translate(36.88 272.92) rotate(-180)"/><rect class="cls-5" x="47.95" y="163.96" width="7.38" height="7.38" transform="translate(103.27 335.3) rotate(-180)"/><rect class="cls-5" x="40.51" y="147.53" width="7.44" height="16.43" transform="translate(88.45 311.49) rotate(-180)"/><rect class="cls-5" x="55.32" y="171.34" width="7.38" height="21.03" transform="translate(118.02 363.71) rotate(-180)"/><rect class="cls-5" x="70.28" y="132.77" width="7.38" height="7.38" transform="translate(147.95 272.92) rotate(-180)"/><rect class="cls-5" x="14.75" y="118.02" width="7.38" height="7.38" transform="translate(36.88 243.42) rotate(-180)"/><rect class="cls-5" x="22.13" y="103.27" width="7.38" height="7.38" transform="translate(51.63 213.91) rotate(-180)"/><rect class="cls-5" x="29.51" y="95.89" width="7.38" height="7.38" transform="translate(66.39 199.16) rotate(-180)"/><rect class="cls-5" x="36.88" y="88.52" width="7.38" height="7.38" transform="translate(81.14 184.41) rotate(-180)"/><rect class="cls-5" x="44.26" y="81.14" width="7.38" height="7.38" transform="translate(95.89 169.66) rotate(-180)"/><rect class="cls-5" x="51.63" y="73.76" width="7.38" height="7.38" transform="translate(110.65 154.9) rotate(-180)"/><rect class="cls-5" x="59.01" y="66.39" width="7.38" height="7.38" transform="translate(125.4 140.15) rotate(-180)"/><rect class="cls-5" x="66.39" y="59.01" width="7.38" height="7.38" transform="translate(140.15 125.4) rotate(-180)"/><rect class="cls-5" x="92.24" y="59.01" width="7.38" height="7.38" transform="translate(191.85 125.4) rotate(-180)"/><rect class="cls-5" x="77.66" y="125.4" width="7.38" height="7.38" transform="translate(162.7 258.17) rotate(-180)"/><rect class="cls-5" x="150.55" y="150.31" width="7.38" height="7.38" transform="translate(308.47 307.99) rotate(-180)"/><rect class="cls-5" x="126.89" y="157.68" width="7.38" height="7.38" transform="translate(261.17 322.74) rotate(-180)"/><rect class="cls-5" x="157.92" y="157.68" width="7.38" height="7.38" transform="translate(323.22 322.74) rotate(-180)"/><rect class="cls-5" x="119.52" y="165.06" width="7.38" height="12.56" transform="translate(246.41 342.68) rotate(-180)"/><rect class="cls-5" x="165.3" y="165.06" width="7.38" height="12.56" transform="translate(337.98 342.68) rotate(-180)"/><rect class="cls-5" x="70.28" y="118.02" width="7.38" height="7.38" transform="translate(147.95 243.42) rotate(-180)"/><rect class="cls-5" x="92.11" y="177.62" width="77.54" height="7.38" transform="translate(261.76 362.61) rotate(-180)"/><rect class="cls-5" x="14.75" y="192.37" width="58.89" height="7.38" transform="translate(88.39 392.11) rotate(-180)"/><rect class="cls-5" x="22.13" y="110.65" width="48.16" height="7.38" transform="translate(92.41 228.67) rotate(-180)"/><rect class="cls-5" x="22.13" y="140.15" width="48.16" height="7.38" transform="translate(92.41 287.68) rotate(-180)"/><rect class="cls-5" x="-22.42" y="155.2" width="52.22" height="7.38" transform="translate(162.57 155.2) rotate(90)"/><rect class="cls-5" x="62.62" y="155.2" width="52.22" height="7.38" transform="translate(247.61 70.16) rotate(90)"/><polygon class="cls-3" points="92.24 51.63 110.72 51.63 110.72 44.26 129.19 44.26 129.19 36.88 147.67 36.88 147.67 29.51 166.14 29.51 166.14 22.13 184.62 22.13 184.62 14.75 203.09 14.75 203.09 7.38 228.36 7.38 228.36 14.55 242.33 14.55 242.33 28.58 234.32 28.58 234.32 35.96 220.35 35.96 220.35 43.33 206.38 43.33 206.38 50.71 192.45 50.71 192.45 58.09 178.48 58.09 178.48 65.46 164.52 65.46 164.52 73.1 150.55 73.1 150.55 80.48 136.58 80.48 136.58 73.76 113.58 73.76 113.58 66.39 99.62 66.39 99.62 59.01 92.24 59.01 92.24 51.63"/><polygon class="cls-1" points="150.55 80.48 164.52 80.48 164.52 73.1 178.48 73.1 178.48 65.46 192.45 65.46 192.45 58.09 206.42 58.09 206.42 50.71 220.35 50.71 220.35 43.33 234.32 43.33 234.32 35.96 248.28 35.96 248.85 35.96 248.85 43.09 255.36 43.09 255.36 57.37 261.88 57.37 261.88 65.97 268.4 65.97 268.4 80.24 274.92 80.24 274.92 88.84 281.44 88.84 281.44 103.11 287.96 103.11 287.96 117.38 294.47 117.38 294.47 125.98 280.51 125.98 280.51 133.36 262.03 133.36 262.03 140.73 243.55 140.73 243.55 148.11 225.08 148.11 225.08 155.49 206.6 155.49 206.6 162.86 188.13 162.86 188.13 170.24 172.68 170.24 172.68 165.06 165.3 165.06 165.3 157.68 157.92 157.68 157.92 150.31 150.55 150.31 150.55 80.48"/><polygon class="cls-1" points="141.65 157.68 141.65 150.31 150.55 150.31 150.55 157.68 157.92 157.68 157.92 165.06 165.3 165.06 165.3 177.62 126.89 177.62 126.89 165.06 134.27 165.06 134.27 157.68 141.65 157.68"/><rect class="cls-2" x="126.89" y="165.06" width="7.38" height="12.56" transform="translate(261.17 342.68) rotate(-180)"/><rect class="cls-4" x="134.27" y="165.06" width="7.38" height="12.56" transform="translate(275.92 342.68) rotate(-180)"/><rect class="cls-2" x="134.27" y="157.68" width="7.38" height="7.38" transform="translate(275.92 322.74) rotate(-180)"/><rect class="cls-2" x="99.79" y="112.84" width="8.9" height="7.38" transform="translate(208.48 233.06) rotate(-180)"/><polygon class="cls-4" points="73.76 59.01 92.24 59.01 92.24 66.39 99.62 66.39 99.62 73.76 113.58 73.76 113.58 80.48 136.58 80.48 136.58 87.86 141.54 87.86 141.54 150.31 134.27 150.31 134.27 157.68 126.89 157.68 126.89 165.06 119.52 165.06 119.52 177.62 92.41 177.62 92.41 132.77 85.04 132.77 85.04 125.4 77.66 125.4 77.66 118.02 70.28 118.02 70.28 110.65 29.51 110.65 29.51 103.27 36.88 103.27 36.88 95.89 44.26 95.89 44.26 88.52 51.63 88.52 51.63 81.14 59.01 81.14 59.01 73.76 66.39 73.76 66.39 66.39 73.76 66.39 73.76 59.01"/><rect class="cls-2" x="92.41" y="120.22" width="7.38" height="12.56" transform="translate(192.2 252.99) rotate(-180)"/><rect class="cls-2" x="99.79" y="112.84" width="7.38" height="7.38" transform="translate(206.96 233.06) rotate(-180)"/><rect class="cls-2" x="75.62" y="80.48" width="7.38" height="12.56" transform="translate(-7.44 166.07) rotate(-90)"/><rect class="cls-2" x="95.93" y="95.23" width="7.38" height="12.56" transform="translate(-1.89 201.13) rotate(-90)"/><rect class="cls-2" x="109.55" y="155.09" width="7.38" height="12.56" transform="translate(-48.13 274.61) rotate(-90)"/><rect class="cls-2" x="85.59" y="90.45" width="7.38" height="7.38" transform="translate(-4.85 183.41) rotate(-90)"/><rect class="cls-2" x="119.52" y="146.62" width="7.38" height="7.38" transform="translate(-27.1 273.51) rotate(-90)"/><rect class="cls-2" x="107.17" y="112.84" width="7.38" height="7.38" transform="translate(221.71 233.06) rotate(-180)"/><polygon class="cls-3" points="22.13 118.02 70.28 118.02 70.28 125.4 77.66 125.4 77.66 132.77 70.28 132.77 70.28 140.15 22.13 140.15 22.13 132.77 14.75 132.77 14.75 125.4 22.13 125.4 22.13 118.02"/><polygon class="cls-1" points="47.88 147.53 70.28 147.53 70.28 140.15 77.66 140.15 77.66 132.77 85.04 132.77 85.04 184.99 73.64 184.99 73.64 192.37 62.7 192.37 62.7 171.34 55.32 171.34 55.32 163.96 47.95 163.96 47.88 147.53"/><polygon class="cls-4" points="7.38 132.77 14.75 132.77 14.75 140.15 22.13 140.15 22.13 147.53 40.51 147.53 40.51 163.96 47.95 163.96 47.95 171.34 55.32 171.34 55.32 192.37 14.75 192.37 14.75 184.99 7.38 184.99 7.38 132.77"/><rect class="cls-2" x="7.38" y="154.9" width="7.38" height="12.56" transform="translate(22.13 322.36) rotate(-180)"/><rect class="cls-2" x="14.75" y="147.53" width="7.38" height="7.38" transform="translate(36.88 302.43) rotate(-180)"/><rect class="cls-2" x="30.54" y="164.51" width="7.38" height="12.56" transform="translate(-136.56 205.02) rotate(-90)"/><rect class="cls-2" x="40.51" y="174.48" width="7.38" height="7.38" transform="translate(-133.97 222.36) rotate(-90)"/><rect class="cls-5" x="134.27" y="150.31" width="7.38" height="7.38" transform="translate(275.92 307.99) rotate(-180)"/><rect class="cls-3" x="141.65" y="150.31" width="8.9" height="7.38" transform="translate(292.19 307.99) rotate(-180)"/><rect class="cls-5" x="141.54" y="157.68" width="9" height="19.93" transform="translate(292.09 335.3) rotate(-180)"/></svg>