<?xml version="1.0" encoding="UTF-8"?><svg id="Layer_1" xmlns="http://www.w3.org/2000/svg" viewBox="0 0 238.16 271.71"><defs><style>.cls-1,.cls-2,.cls-3,.cls-4{stroke-width:0px;}.cls-2{fill:#fff;}.cls-3{fill:#939598;}.cls-4{fill:#231f20;}</style></defs><rect class="cls-1" x="143.66" y="188.43" width="6.52" height="25.83" transform="translate(-101.37 223.13) rotate(-58.9)"/><rect class="cls-1" x="152.99" y="212.67" width="8.04" height="6.52" transform="translate(-108.99 238.82) rotate(-58.9)"/><rect class="cls-1" x="116.01" y="218.91" width="14.15" height="6.52" transform="translate(-130.73 212.79) rotate(-58.9)"/><rect class="cls-1" x="116.36" y="201" width="19.81" height="6.52" transform="translate(-113.85 206.86) rotate(-58.9)"/><rect class="cls-1" x="128.34" y="226.45" width="6.51" height="25.83" transform="translate(-141.34 228.39) rotate(-58.9)"/><rect class="cls-1" x="140.86" y="230.58" width="25.91" height="6.52" transform="translate(-125.86 244.75) rotate(-58.9)"/><rect class="cls-4" x="131.99" y="1.91" width="7.05" height="43.93" transform="translate(31.82 -66.57) rotate(31.1)"/><rect class="cls-4" x="155.18" y="151.87" width="7.05" height="45.19" transform="translate(390.07 128.7) rotate(121.1)"/><rect class="cls-4" x="168.32" y="218.5" width="7.05" height="45.19" transform="translate(194.45 536.31) rotate(-148.9)"/><rect class="cls-4" x="115.85" y="239.5" width="7.05" height="38.49" transform="translate(402.6 290.2) rotate(121.1)"/><rect class="cls-4" x="151.51" y="1.06" width="6.35" height="8.05" transform="translate(24.86 -79.17) rotate(31.1)"/><rect class="cls-4" x="152.77" y="11.27" width="6.52" height="8.05" transform="translate(30.33 -78.4) rotate(31.1)"/><rect class="cls-4" x="173.68" y="190.26" width="6.52" height="8.05" transform="translate(125.8 -63.47) rotate(31.1)"/><rect class="cls-4" x="175.11" y="200.52" width="6.52" height="8.05" transform="translate(131.3 -62.73) rotate(31.1)"/><rect class="cls-4" x="176.53" y="210.78" width="6.52" height="8.05" transform="translate(136.81 -62) rotate(31.1)"/><rect class="cls-4" x="149.03" y="256.36" width="6.52" height="8.05" transform="translate(156.4 -41.23) rotate(31.1)"/><rect class="cls-4" x="139.29" y="259.89" width="6.52" height="8.05" transform="translate(156.82 -35.7) rotate(31.1)"/><rect class="cls-4" x="152.62" y="21.09" width="6.52" height="14.15" transform="translate(36.96 -76.47) rotate(31.1)"/><rect class="cls-4" x="150.89" y="36.58" width="6.52" height="14.15" transform="translate(44.71 -73.36) rotate(31.1)"/><rect class="cls-4" x="149.16" y="52.06" width="6.52" height="14.15" transform="translate(52.46 -70.24) rotate(31.1)"/><rect class="cls-4" x="147.44" y="67.54" width="6.52" height="14.15" transform="translate(60.21 -67.12) rotate(31.1)"/><rect class="cls-4" x="145.7" y="83.02" width="6.52" height="14.15" transform="translate(67.96 -64) rotate(31.1)"/><rect class="cls-4" x="143.97" y="98.5" width="6.52" height="14.15" transform="translate(75.71 -60.88) rotate(31.1)"/><rect class="cls-4" x="142.24" y="113.99" width="6.52" height="14.15" transform="translate(83.46 -57.76) rotate(31.1)"/><rect class="cls-4" x="140.51" y="129.47" width="6.52" height="14.15" transform="translate(91.2 -54.64) rotate(31.1)"/><rect class="cls-4" x="138.78" y="144.95" width="6.52" height="14.15" transform="translate(98.95 -51.52) rotate(31.1)"/><rect class="cls-4" x="102.33" y="230.97" width="6.52" height="14.15" transform="translate(138.15 -20.32) rotate(31.1)"/><rect class="cls-4" x="104.06" y="215.49" width="6.52" height="14.15" transform="translate(130.4 -23.44) rotate(31.1)"/><rect class="cls-4" x="105.78" y="200" width="6.52" height="14.15" transform="translate(122.65 -26.56) rotate(31.1)"/><rect class="cls-4" x="107.51" y="184.52" width="6.52" height="14.15" transform="translate(114.9 -29.68) rotate(31.1)"/><rect class="cls-4" x="109.24" y="169.04" width="6.52" height="14.15" transform="translate(107.15 -32.8) rotate(31.1)"/><rect class="cls-4" x="110.97" y="153.55" width="6.52" height="14.15" transform="translate(99.4 -35.92) rotate(31.1)"/><rect class="cls-4" x="112.7" y="138.07" width="6.52" height="14.15" transform="translate(91.65 -39.04) rotate(31.1)"/><rect class="cls-4" x="114.43" y="122.59" width="6.52" height="14.15" transform="translate(83.9 -42.15) rotate(31.1)"/><rect class="cls-4" x="116.16" y="107.1" width="6.52" height="14.15" transform="translate(76.15 -45.27) rotate(31.1)"/><rect class="cls-4" x="117.89" y="91.62" width="6.52" height="14.15" transform="translate(68.4 -48.39) rotate(31.1)"/><rect class="cls-4" x="119.61" y="76.14" width="6.52" height="14.15" transform="translate(60.65 -51.51) rotate(31.1)"/><rect class="cls-4" x="121.34" y="60.65" width="6.52" height="14.15" transform="translate(52.9 -54.63) rotate(31.1)"/><rect class="cls-4" x="123.07" y="45.17" width="6.52" height="14.15" transform="translate(45.15 -57.75) rotate(31.1)"/><path class="cls-3" d="M174.92,216.56l4.16-6.89-5.58-3.37,4.16-6.89-5.58-3.37,4.16-6.89-38.7-23.35,3.64-6.04-5.58-3.37,7.31-12.12-5.58-3.37,7.31-12.12-5.58-3.37,7.31-12.12-5.58-3.37,7.31-12.12-5.58-3.37,7.31-12.12-5.57-3.36,7.31-12.12-5.58-3.37,7.31-12.12-5.58-3.37,7.31-12.12-5.58-3.37,7.31-12.12-5.58-3.37,4.16-6.89-5.43-3.28-22.69,37.61,5.58,3.37-7.31,12.12,5.58,3.37-7.31,12.12,5.58,3.37-7.31,12.12,5.58,3.37-7.31,12.12,5.58,3.37-7.31,12.12,5.58,3.37-7.31,12.12,5.58,3.37-7.31,12.12,5.58,3.37-7.31,12.12,5.58,3.37-7.31,12.12,5.58,3.37-7.31,12.12,5.58,3.37-7.31,12.12,5.58,3.37-7.31,12.12,5.58,3.37-7.31,12.12,32.96,19.88,4.16-6.89,5.58,3.37,4.16-6.89,5.58,3.37,23.35-38.7-5.58-3.37ZM149.98,246.5l-5.55-3.34-3.37,5.58-22.12-13.34,3.37-5.58-5.58-3.37,7.31-12.11-5.58-3.37,10.24-16.96,5.56,3.36h0s.02,0,.02,0l3.36-5.58,22.05,13.3-3.41,5.73,5.59,3.34-4.09,6.78h.02s-.07.12-.07.12l5.56,3.36-13.32,22.08Z"/><rect class="cls-1" x="58.23" y="136.88" width="6.52" height="25.83" transform="translate(-98.54 125.06) rotate(-58.9)"/><rect class="cls-1" x="39.86" y="144.42" width="8.04" height="6.52" transform="translate(-105.24 108.96) rotate(-58.9)"/><rect class="cls-1" x="47.11" y="177.34" width="14.15" height="6.52" transform="translate(-128.44 133.7) rotate(-58.9)"/><rect class="cls-1" x="58.63" y="166.17" width="19.81" height="6.52" transform="translate(-111.94 140.59) rotate(-58.9)"/><rect class="cls-1" x="31.74" y="168.17" width="6.51" height="25.83" transform="translate(-138.14 117.51) rotate(-58.9)"/><rect class="cls-1" x="16.57" y="155.59" width="25.91" height="6.52" transform="translate(-121.74 102.07) rotate(-58.9)"/><rect class="cls-4" x="220.27" y="55.17" width="7.05" height="43.93" transform="translate(375.57 258.78) rotate(-148.9)"/><rect class="cls-4" x="76.24" y="104.25" width="7.05" height="45.19" transform="translate(229.58 124.06) rotate(121.1)"/><rect class="cls-4" x="11.17" y="123.69" width="7.05" height="45.19" transform="translate(77.68 13.44) rotate(31.1)"/><rect class="cls-4" x="20.02" y="181.69" width="7.05" height="38.49" transform="translate(207.75 284.57) rotate(121.1)"/><rect class="cls-4" x="228.31" y="47.39" width="6.35" height="8.05" transform="translate(403.13 215.02) rotate(-148.9)"/><rect class="cls-4" x="218.56" y="50.96" width="6.52" height="8.05" transform="translate(383.34 216.65) rotate(-148.9)"/><rect class="cls-4" x="50.47" y="115.93" width="6.52" height="8.05" transform="translate(37.77 250.41) rotate(-148.9)"/><rect class="cls-4" x="40.73" y="119.45" width="6.52" height="8.05" transform="translate(17.88 251.92) rotate(-148.9)"/><rect class="cls-4" x="31" y="122.97" width="6.52" height="8.05" transform="translate(-2.02 253.43) rotate(-148.9)"/><rect class="cls-4" x="3.49" y="168.56" width="6.52" height="8.05" transform="translate(-76.62 323.85) rotate(-148.9)"/><rect class="cls-4" x="4.92" y="178.82" width="6.52" height="8.05" transform="translate(-79.28 343.62) rotate(-148.9)"/><rect class="cls-4" x="207.24" y="54.05" width="6.52" height="14.15" transform="translate(359.17 222.2) rotate(-148.9)"/><rect class="cls-4" x="194.35" y="62.8" width="6.52" height="14.15" transform="translate(330.72 231.78) rotate(-148.9)"/><rect class="cls-4" x="181.46" y="71.55" width="6.52" height="14.15" transform="translate(302.27 241.36) rotate(-148.9)"/><rect class="cls-4" x="168.57" y="80.29" width="6.52" height="14.15" transform="translate(273.83 250.94) rotate(-148.9)"/><rect class="cls-4" x="155.69" y="89.05" width="6.52" height="14.15" transform="translate(245.39 260.54) rotate(-148.9)"/><rect class="cls-4" x="142.8" y="97.8" width="6.52" height="14.15" transform="translate(216.94 270.12) rotate(-148.9)"/><rect class="cls-4" x="129.91" y="106.55" width="6.52" height="14.15" transform="translate(188.5 279.7) rotate(-148.9)"/><rect class="cls-4" x="117.02" y="115.3" width="6.52" height="14.15" transform="translate(160.05 289.28) rotate(-148.9)"/><rect class="cls-4" x="104.13" y="124.05" width="6.52" height="14.15" transform="translate(131.6 298.86) rotate(-148.9)"/><rect class="cls-4" x="45.03" y="196.4" width="6.52" height="14.15" transform="translate(-15.47 402.65) rotate(-148.9)"/><rect class="cls-4" x="57.92" y="187.66" width="6.52" height="14.15" transform="translate(12.97 393.07) rotate(-148.9)"/><rect class="cls-4" x="70.81" y="178.91" width="6.52" height="14.15" transform="translate(41.42 383.49) rotate(-148.9)"/><rect class="cls-4" x="83.7" y="170.16" width="6.52" height="14.15" transform="translate(69.87 373.91) rotate(-148.9)"/><rect class="cls-4" x="96.6" y="161.41" width="6.52" height="14.15" transform="translate(98.32 364.33) rotate(-148.9)"/><rect class="cls-4" x="109.49" y="152.66" width="6.52" height="14.15" transform="translate(126.77 354.75) rotate(-148.9)"/><rect class="cls-4" x="122.38" y="143.91" width="6.52" height="14.15" transform="translate(155.22 345.17) rotate(-148.9)"/><rect class="cls-4" x="135.27" y="135.16" width="6.52" height="14.15" transform="translate(183.66 335.58) rotate(-148.9)"/><rect class="cls-4" x="148.16" y="126.41" width="6.52" height="14.15" transform="translate(212.11 326) rotate(-148.9)"/><rect class="cls-4" x="161.05" y="117.66" width="6.52" height="14.15" transform="translate(240.56 316.42) rotate(-148.9)"/><rect class="cls-4" x="173.94" y="108.91" width="6.52" height="14.15" transform="translate(269.01 306.84) rotate(-148.9)"/><rect class="cls-4" x="186.83" y="100.16" width="6.52" height="14.15" transform="translate(297.46 297.26) rotate(-148.9)"/><rect class="cls-4" x="199.72" y="91.42" width="6.52" height="14.15" transform="translate(325.91 287.68) rotate(-148.9)"/><path class="cls-2" d="M29.39,128.76l-23.35,38.7,5.58,3.37-4.16,6.89,5.58,3.37-4.16,6.89,32.96,19.88,7.31-12.12,5.58,3.37,7.31-12.12,5.58,3.37,7.31-12.12,5.58,3.37,7.31-12.12,5.58,3.37,7.31-12.12,5.58,3.37,7.31-12.12,5.58,3.37,7.31-12.12,5.58,3.37,7.31-12.12,5.58,3.37,7.31-12.12,5.58,3.37,7.31-12.12,5.58,3.37,7.31-12.12,5.58,3.37,7.31-12.12,5.58,3.37,7.31-12.12,5.58,3.37,22.69-37.61-5.43-3.28-4.16,6.89-5.58-3.37-7.31,12.12-5.58-3.37-7.31,12.12-5.58-3.37-7.31,12.12-5.58-3.37-7.31,12.12-5.57-3.36-7.31,12.12-5.58-3.37-7.31,12.12-5.58-3.37-7.31,12.12-5.58-3.37-7.31,12.12-5.58-3.37-7.31,12.12-5.58-3.37-3.64,6.04-38.7-23.35-4.16,6.89-5.58-3.37-4.16,6.89-5.58-3.37-4.16,6.89-5.58-3.37ZM33.43,146.07l5.56,3.36.07-.11h.02s4.09-6.77,4.09-6.77l5.57,3.39,3.48-5.69,22.05,13.3-3.36,5.58h.02s0,.01,0,.01l5.56,3.36-10.24,16.96-5.58-3.37-7.31,12.11-5.58-3.37-3.37,5.58-22.12-13.34,3.37-5.58-5.55-3.35,13.32-22.08Z"/><rect class="cls-1" x="131.4" y="123.36" width="4.99" height="12.29" transform="translate(86.15 -50.55) rotate(31.1)"/></svg>