<?xml version="1.0" encoding="UTF-8"?><svg id="Layer_1" xmlns="http://www.w3.org/2000/svg" viewBox="0 0 190.6 242.99"><defs><style>.cls-1{fill:#808285;}.cls-1,.cls-2,.cls-3,.cls-4{stroke-width:0px;}.cls-3{fill:#fff;}.cls-4{fill:#231f20;}</style></defs><rect class="cls-2" x="132.27" y="172.82" width="25.83" height="6.52"/><rect class="cls-2" x="158.1" y="179.33" width="6.52" height="8.04"/><rect class="cls-2" x="132.27" y="199.15" width="6.52" height="14.15"/><rect class="cls-2" x="125.75" y="179.33" width="6.52" height="19.81"/><rect class="cls-2" x="138.79" y="213.29" width="25.83" height="6.51"/><rect class="cls-2" x="164.62" y="187.38" width="6.52" height="25.91"/><rect class="cls-4" x="40.22" y="8.05" width="7.05" height="43.93"/><rect class="cls-4" x="137.86" y="124.38" width="7.05" height="45.19" transform="translate(288.37 5.59) rotate(90)"/><rect class="cls-4" x="183.54" y="174.65" width="7.05" height="45.19" transform="translate(374.14 394.48) rotate(180)"/><rect class="cls-4" x="147.73" y="220.21" width="7.05" height="38.49" transform="translate(390.72 88.2) rotate(90)"/><rect class="cls-4" x="47.28" width="6.35" height="8.05"/><rect class="cls-4" x="53.62" y="8.05" width="6.52" height="8.05"/><rect class="cls-4" x="163.99" y="150.5" width="6.52" height="8.05"/><rect class="cls-4" x="170.51" y="158.55" width="6.52" height="8.05"/><rect class="cls-4" x="177.02" y="166.6" width="6.52" height="8.05"/><rect class="cls-4" x="177.02" y="219.84" width="6.52" height="8.05"/><rect class="cls-4" x="170.51" y="227.89" width="6.52" height="8.05"/><rect class="cls-4" x="60.14" y="16.09" width="6.52" height="14.15"/><rect class="cls-4" x="66.66" y="30.25" width="6.52" height="14.15"/><rect class="cls-4" x="73.18" y="44.4" width="6.52" height="14.15"/><rect class="cls-4" x="79.7" y="58.55" width="6.52" height="14.15"/><rect class="cls-4" x="86.2" y="72.7" width="6.52" height="14.15"/><rect class="cls-4" x="92.72" y="86.85" width="6.52" height="14.15"/><rect class="cls-4" x="99.24" y="101" width="6.52" height="14.15"/><rect class="cls-4" x="105.76" y="115.15" width="6.52" height="14.15"/><rect class="cls-4" x="112.28" y="129.3" width="6.52" height="14.15"/><rect class="cls-4" x="125.5" y="221.78" width="6.52" height="14.15"/><rect class="cls-4" x="118.98" y="207.63" width="6.52" height="14.15"/><rect class="cls-4" x="112.46" y="193.48" width="6.52" height="14.15"/><rect class="cls-4" x="105.94" y="179.33" width="6.52" height="14.15"/><rect class="cls-4" x="99.42" y="165.18" width="6.52" height="14.15"/><rect class="cls-4" x="92.91" y="151.03" width="6.52" height="14.15"/><rect class="cls-4" x="86.39" y="136.88" width="6.52" height="14.15"/><rect class="cls-4" x="79.87" y="122.73" width="6.52" height="14.15"/><rect class="cls-4" x="73.35" y="108.58" width="6.52" height="14.15"/><rect class="cls-4" x="66.83" y="94.43" width="6.52" height="14.15"/><rect class="cls-4" x="60.31" y="80.28" width="6.52" height="14.15"/><rect class="cls-4" x="53.8" y="66.13" width="6.52" height="14.15"/><rect class="cls-4" x="47.28" y="51.98" width="6.52" height="14.15"/><path class="cls-1" d="M177.02,174.65v-8.05h-6.52v-8.05h-6.52v-8.05h-45.19v-7.05h-6.52v-14.15h-6.52v-14.15h-6.52v-14.15h-6.52v-14.15h-6.52v-14.15h-6.51v-14.15h-6.52v-14.15h-6.52v-14.15h-6.52v-14.15h-6.52v-8.05h-6.35v43.93h6.52v14.15h6.52v14.15h6.52v14.15h6.52v14.15h6.52v14.15h6.52v14.15h6.52v14.15h6.52v14.15h6.52v14.15h6.52v14.15h6.52v14.15h6.52v14.15h6.52v14.15h38.49v-8.05h6.52v-8.05h6.52v-45.19h-6.52ZM171.14,213.16h-6.48v6.52h-25.83v-6.51h-6.52v-14.15h-6.52v-19.81h6.5s.02,0,.02,0v-6.51h25.75s.04,6.67.04,6.67l6.52-.03v7.92h.02v.13h6.5v25.79Z"/><rect class="cls-2" x="32.49" y="172.82" width="25.83" height="6.52"/><rect class="cls-2" x="25.98" y="179.33" width="6.52" height="8.04"/><rect class="cls-2" x="51.81" y="199.15" width="6.52" height="14.15"/><rect class="cls-2" x="58.32" y="179.33" width="6.52" height="19.81"/><rect class="cls-2" x="25.98" y="213.29" width="25.83" height="6.51"/><rect class="cls-2" x="19.46" y="187.38" width="6.52" height="25.91"/><rect class="cls-4" x="143.32" y="8.05" width="7.05" height="43.93" transform="translate(293.69 60.02) rotate(-180)"/><rect class="cls-4" x="45.68" y="124.38" width="7.05" height="45.19" transform="translate(196.18 97.77) rotate(90)"/><rect class="cls-4" x="0" y="174.65" width="7.05" height="45.19"/><rect class="cls-4" x="35.81" y="220.21" width="7.05" height="38.49" transform="translate(278.8 200.12) rotate(90)"/><rect class="cls-4" x="136.97" y="0" width="6.35" height="8.05" transform="translate(280.29 8.05) rotate(-180)"/><rect class="cls-4" x="130.45" y="8.05" width="6.52" height="8.05" transform="translate(267.43 24.14) rotate(-180)"/><rect class="cls-4" x="20.09" y="150.5" width="6.52" height="8.05" transform="translate(46.7 309.05) rotate(-180)"/><rect class="cls-4" x="13.57" y="158.55" width="6.52" height="8.05" transform="translate(33.66 325.15) rotate(-180)"/><rect class="cls-4" x="7.05" y="166.6" width="6.52" height="8.05" transform="translate(20.63 341.24) rotate(-180)"/><rect class="cls-4" x="7.05" y="219.84" width="6.52" height="8.05" transform="translate(20.63 447.72) rotate(-180)"/><rect class="cls-4" x="13.57" y="227.89" width="6.52" height="8.05" transform="translate(33.66 463.82) rotate(-180)"/><rect class="cls-4" x="123.94" y="16.09" width="6.52" height="14.15" transform="translate(254.39 46.34) rotate(-180)"/><rect class="cls-4" x="117.42" y="30.25" width="6.52" height="14.15" transform="translate(241.35 74.64) rotate(-180)"/><rect class="cls-4" x="110.9" y="44.4" width="6.52" height="14.15" transform="translate(228.32 102.94) rotate(-180)"/><rect class="cls-4" x="104.38" y="58.55" width="6.52" height="14.15" transform="translate(215.28 131.24) rotate(-180)"/><rect class="cls-4" x="97.87" y="72.7" width="6.52" height="14.15" transform="translate(202.27 159.54) rotate(-180)"/><rect class="cls-4" x="91.36" y="86.85" width="6.52" height="14.15" transform="translate(189.23 187.85) rotate(-180)"/><rect class="cls-4" x="84.84" y="101" width="6.52" height="14.15" transform="translate(176.19 216.15) rotate(-180)"/><rect class="cls-4" x="78.32" y="115.15" width="6.52" height="14.15" transform="translate(163.16 244.45) rotate(-180)"/><rect class="cls-4" x="71.8" y="129.3" width="6.52" height="14.15" transform="translate(150.12 272.75) rotate(-180)"/><rect class="cls-4" x="58.58" y="221.78" width="6.52" height="14.15" transform="translate(123.68 457.72) rotate(-180)"/><rect class="cls-4" x="65.1" y="207.63" width="6.52" height="14.15" transform="translate(136.72 429.41) rotate(-180)"/><rect class="cls-4" x="71.62" y="193.48" width="6.52" height="14.15" transform="translate(149.75 401.11) rotate(-180)"/><rect class="cls-4" x="78.14" y="179.33" width="6.52" height="14.15" transform="translate(162.79 372.81) rotate(-180)"/><rect class="cls-4" x="84.65" y="165.18" width="6.52" height="14.15" transform="translate(175.83 344.51) rotate(-180)"/><rect class="cls-4" x="91.17" y="151.03" width="6.52" height="14.15" transform="translate(188.86 316.21) rotate(-180)"/><rect class="cls-4" x="97.69" y="136.88" width="6.52" height="14.15" transform="translate(201.9 287.91) rotate(-180)"/><rect class="cls-4" x="104.21" y="122.73" width="6.52" height="14.15" transform="translate(214.93 259.61) rotate(-180)"/><rect class="cls-4" x="110.73" y="108.58" width="6.52" height="14.15" transform="translate(227.97 231.31) rotate(-180)"/><rect class="cls-4" x="117.24" y="94.43" width="6.52" height="14.15" transform="translate(241.01 203.01) rotate(-180)"/><rect class="cls-4" x="123.76" y="80.28" width="6.52" height="14.15" transform="translate(254.04 174.71) rotate(-180)"/><rect class="cls-4" x="130.28" y="66.13" width="6.52" height="14.15" transform="translate(267.08 146.41) rotate(-180)"/><rect class="cls-4" x="136.8" y="51.98" width="6.52" height="14.15" transform="translate(280.12 118.1) rotate(-180)"/><path class="cls-3" d="M7.05,174.65v45.19s6.52,0,6.52,0v8.05s6.52,0,6.52,0v8.05s38.49,0,38.49,0v-14.15h6.52s0-14.15,0-14.15h6.52s0-14.15,0-14.15h6.52s0-14.15,0-14.15h6.52s0-14.15,0-14.15h6.52s0-14.15,0-14.15h6.52s0-14.15,0-14.15h6.52s0-14.15,0-14.15h6.52s0-14.15,0-14.15h6.52s0-14.15,0-14.15h6.52s0-14.15,0-14.15h6.52s0-14.15,0-14.15h6.52s0-14.15,0-14.15h6.52s0-43.93,0-43.93h-6.35s0,8.05,0,8.05h-6.52s0,14.15,0,14.15h-6.52s0,14.15,0,14.15h-6.52s0,14.15,0,14.15h-6.52s0,14.15,0,14.15h-6.51s0,14.15,0,14.15h-6.52s0,14.15,0,14.15h-6.52s0,14.15,0,14.15h-6.52s0,14.15,0,14.15h-6.52s0,14.15,0,14.15h-6.52s0,7.05,0,7.05H26.61s0,8.05,0,8.05h-6.52s0,8.05,0,8.05h-6.52s0,8.05,0,8.05h-6.52ZM19.46,187.38h6.5s0-.13,0-.13h.02v-7.92l6.52.03.04-6.67h25.75v6.52s.02,0,.02,0h0s6.5,0,6.5,0v19.81h-6.52s0,14.15,0,14.15h-6.52s0,6.51,0,6.51h-25.83v-6.51s-6.48,0-6.48,0v-25.79Z"/><rect class="cls-2" x="94.43" y="115.15" width="4.99" height="12.29"/></svg>